<svg width="24" height="24" viewBox="0 0 24 24" fill="none" xmlns="http://www.w3.org/2000/svg">
<path d="M16 2H8C6.34315 2 5 3.34315 5 5V17C5 18.6569 6.34315 20 8 20H16C17.6569 20 19 18.6569 19 17V5C19 3.34315 17.6569 2 16 2Z" stroke="currentColor" stroke-width="1.5" stroke-linecap="round" stroke-linejoin="round"/>
<path d="M5 6H4C2.89543 6 2 6.89543 2 8V19C2 20.6569 3.34315 22 5 22H14C15.1046 22 16 21.1046 16 20V19" stroke="currentColor" stroke-width="1.5" stroke-linecap="round" stroke-linejoin="round" opacity="0.5"/>
<path d="M9 11L11 13L15 9" stroke="currentColor" stroke-width="2" stroke-linecap="round" stroke-linejoin="round"/>
</svg>
